<svg width="24" height="24" viewBox="0 0 128 128" fill="none" xmlns="http://www.w3.org/2000/svg">
  <defs>
    <linearGradient id="phantom-gradient" x1="0%" y1="0%" x2="100%" y2="100%">
      <stop offset="0%" style="stop-color:#AB9FF2;stop-opacity:1" />
      <stop offset="100%" style="stop-color:#4E44CE;stop-opacity:1" />
    </linearGradient>
  </defs>
  <path d="M99.2,24C87.5,8.6,67.4,0.2,43.9,0C18.9,0.2,0,20,0,45.9c0,12.3,4.8,23.4,12.5,31.8l0.2,0.2c0.3,0.3,0.6,0.6,0.9,0.8   c0.4,0.4,0.8,0.7,1.3,1.1c0.2,0.2,0.5,0.4,0.7,0.6c11.5,9.5,26.3,15.2,42.4,15.2c32.9,0,59.5-26.6,59.5-59.5   C117.5,35.4,109.8,28.2,99.2,24z M73.1,56.4c-2.3,3.2-6.7,4.8-11.3,4.8c-4.6,0-9-1.6-11.3-4.8c-0.9-1.3-0.7-3.1,0.6-4   c1.3-0.9,3.1-0.7,4,0.6c1.4,2,4.5,3.2,6.7,3.2c2.2,0,5.3-1.2,6.7-3.2c0.9-1.3,2.7-1.5,4-0.6C73.8,53.3,74,55.1,73.1,56.4z    M43.8,43.7c0-2.8,2.3-5.1,5.1-5.1c2.8,0,5.1,2.3,5.1,5.1c0,2.8-2.3,5.1-5.1,5.1C46.1,48.8,43.8,46.5,43.8,43.7z M73.9,43.7   c0-2.8,2.3-5.1,5.1-5.1c2.8,0,5.1,2.3,5.1,5.1c0,2.8-2.3,5.1-5.1,5.1C76.2,48.8,73.9,46.5,73.9,43.7z" fill="url(#phantom-gradient)"/>
</svg>
